<?xml version="1.0" encoding="UTF-8" standalone="no"?>
<!DOCTYPE svg PUBLIC "-//W3C//DTD SVG 1.1//EN" "http://www.w3.org/Graphics/SVG/1.1/DTD/svg11.dtd">
<svg width="100%" height="100%" viewBox="0 0 1024 417" version="1.1" xmlns="http://www.w3.org/2000/svg" xmlns:xlink="http://www.w3.org/1999/xlink" xml:space="preserve" xmlns:serif="http://www.serif.com/" style="fill-rule:evenodd;clip-rule:evenodd;stroke-linecap:round;stroke-linejoin:round;stroke-miterlimit:1.5;">
    <g id="Prancheta1" transform="matrix(1,0,0,0.542802,0,0)">
        <rect x="0" y="0" width="1024" height="768" style="fill:none;"/>
        <clipPath id="_clip1">
            <rect x="0" y="0" width="1024" height="768"/>
        </clipPath>
        <g clip-path="url(#_clip1)">
            <g transform="matrix(0.983732,0,0,1.81232,0,0)">
                <rect x="0" y="0" width="208.187" height="208.187" style="fill:rgb(235,235,235);stroke:rgb(115,115,115);stroke-width:1.02px;"/>
            </g>
            <g transform="matrix(0.983732,0,0,1.81232,204.8,0)">
                <rect x="0" y="0" width="208.187" height="208.187" style="fill:rgb(235,235,235);stroke:rgb(115,115,115);stroke-width:1.02px;"/>
            </g>
            <g transform="matrix(0.983732,0,0,1.81232,409.6,0)">
                <rect x="0" y="0" width="208.187" height="208.187" style="fill:rgb(235,235,235);stroke:rgb(115,115,115);stroke-width:1.02px;"/>
            </g>
            <g transform="matrix(0.983732,0,0,1.81232,614.4,0)">
                <rect x="0" y="0" width="208.187" height="208.187" style="fill:rgb(235,235,235);stroke:rgb(115,115,115);stroke-width:1.02px;"/>
            </g>
            <g transform="matrix(0.983732,0,0,1.81232,819.2,0)">
                <rect x="0" y="0" width="208.187" height="208.187" style="fill:rgb(235,235,235);stroke:rgb(115,115,115);stroke-width:1.02px;"/>
            </g>
            <g transform="matrix(0.983732,0,0,1.81232,0,377.302)">
                <rect x="0" y="0" width="208.187" height="208.187" style="fill:rgb(235,235,235);stroke:rgb(115,115,115);stroke-width:1.02px;"/>
            </g>
            <g transform="matrix(0.983732,0,0,1.81232,204.8,377.302)">
                <rect x="0" y="0" width="208.187" height="208.187" style="fill:rgb(235,235,235);stroke:rgb(115,115,115);stroke-width:1.02px;"/>
            </g>
            <g transform="matrix(0.983732,0,0,1.81232,409.6,377.302)">
                <rect x="0" y="0" width="208.187" height="208.187" style="fill:rgb(235,235,235);stroke:rgb(115,115,115);stroke-width:1.02px;"/>
            </g>
            <g transform="matrix(0.983732,0,0,1.81232,614.4,377.302)">
                <rect x="0" y="0" width="208.187" height="208.187" style="fill:rgb(235,235,235);stroke:rgb(115,115,115);stroke-width:1.02px;"/>
            </g>
            <g transform="matrix(0.983732,0,0,1.81232,819.2,377.302)">
                <rect x="0" y="0" width="208.187" height="208.187" style="fill:rgb(235,235,235);stroke:rgb(115,115,115);stroke-width:1.02px;"/>
            </g>
            <g transform="matrix(1,0,0,1.84229,30.1016,22.0966)">
                <text x="24.145px" y="104.991px" style="font-family:'Montserrat-Regular', 'Montserrat';font-size:39.633px;fill:rgb(115,115,115);">Sit<tspan x="74.518px " y="104.991px ">e</tspan> 1</text>
            </g>
            <g transform="matrix(1,0,0,1.84229,229.274,22.0966)">
                <text x="24.145px" y="104.991px" style="font-family:'Montserrat-Regular', 'Montserrat';font-size:39.633px;fill:rgb(115,115,115);">Sit<tspan x="74.518px " y="104.991px ">e</tspan> 2</text>
            </g>
            <g transform="matrix(1,0,0,1.84229,436.888,22.0966)">
                <text x="24.145px" y="104.991px" style="font-family:'Montserrat-Regular', 'Montserrat';font-size:39.633px;fill:rgb(115,115,115);">Sit<tspan x="74.518px " y="104.991px ">e</tspan> 3</text>
            </g>
            <g transform="matrix(1,0,0,1.84229,636.06,22.0966)">
                <text x="24.145px" y="104.991px" style="font-family:'Montserrat-Regular', 'Montserrat';font-size:39.633px;fill:rgb(115,115,115);">Sit<tspan x="74.518px " y="104.991px ">e</tspan> 4</text>
            </g>
            <g transform="matrix(1,0,0,1.84229,841.355,22.0966)">
                <text x="24.145px" y="104.991px" style="font-family:'Montserrat-Regular', 'Montserrat';font-size:39.633px;fill:rgb(115,115,115);">Sit<tspan x="74.518px " y="104.991px ">e</tspan> 5</text>
            </g>
            <g transform="matrix(1,0,0,1.84229,30.1016,399.398)">
                <text x="24.145px" y="104.991px" style="font-family:'Montserrat-Regular', 'Montserrat';font-size:39.633px;fill:rgb(115,115,115);">Sit<tspan x="74.518px " y="104.991px ">e</tspan> 1</text>
            </g>
            <g transform="matrix(1,0,0,1.84229,229.274,399.398)">
                <text x="24.145px" y="104.991px" style="font-family:'Montserrat-Regular', 'Montserrat';font-size:39.633px;fill:rgb(115,115,115);">Sit<tspan x="74.518px " y="104.991px ">e</tspan> 2</text>
            </g>
            <g transform="matrix(1,0,0,1.84229,436.888,399.398)">
                <text x="24.145px" y="104.991px" style="font-family:'Montserrat-Regular', 'Montserrat';font-size:39.633px;fill:rgb(115,115,115);">Sit<tspan x="74.518px " y="104.991px ">e</tspan> 3</text>
            </g>
            <g transform="matrix(1,0,0,1.84229,636.06,399.398)">
                <text x="24.145px" y="104.991px" style="font-family:'Montserrat-Regular', 'Montserrat';font-size:39.633px;fill:rgb(115,115,115);">Sit<tspan x="74.518px " y="104.991px ">e</tspan> 4</text>
            </g>
            <g transform="matrix(1,0,0,1.84229,841.355,399.398)">
                <text x="24.145px" y="104.991px" style="font-family:'Montserrat-Regular', 'Montserrat';font-size:39.633px;fill:rgb(115,115,115);">Sit<tspan x="74.518px " y="104.991px ">e</tspan> 5</text>
            </g>
        </g>
    </g>
</svg>
